<svg width="1214" height="831" viewBox="0 0 1214 831" fill="none" xmlns="http://www.w3.org/2000/svg">
<g filter="url(#filter0_d_214_62)">
<path d="M967.976 298C963.876 306.006 953.476 312.5 957.476 318.5C961.476 324.5 1008.98 308 1019.48 321.5C1009.31 342.287 977.476 360 967.976 359C958.476 358 984.976 331.5 984.976 331.5C984.976 331.5 1009.98 300.5 1013.48 298C1016.98 295.5 1017.48 327.5 1022.98 324.5C1028.48 321.5 1056.45 267.96 1054.98 283C1053.51 298.04 1082.48 341.5 1090.48 331.5C1098.48 321.5 1098.48 310.5 1098.48 310.5C1098.48 310.5 1104.98 293.5 1103.98 278.5C1102.98 263.5 1090.48 259.5 1090.48 259.5C1090.48 259.5 1079.98 274.5 1090.48 298C1100.98 321.5 1125.98 375 1131.98 372.5C1137.98 370 1135.48 353.5 1135.48 353.5C1135.48 353.5 1119.48 318 1115.98 315.5C1112.48 313 1099.98 302.5 1107.98 298C1115.98 293.5 1129.48 298 1146.98 283" stroke="#A333D4" stroke-linecap="round"/>
<path d="M985.976 281C968.286 293.429 952.476 314 952.476 319.5C952.476 325 957.843 327.228 962.976 325C968.11 322.771 1012.98 316 1020.48 321.5C1027.98 327 1005.98 348.5 1005.98 348.5C1005.98 348.5 987.976 371 977.476 368C966.976 365 994.976 333.5 994.976 333.5C994.976 333.5 1012.98 306.5 1020.48 298C1027.98 289.5 1031.98 272.5 1027.98 272.5C1023.98 272.5 1022.48 272.5 1016.48 283C1010.48 293.5 1012.98 311.5 1020.48 315.5C1027.98 319.5 1034.48 321.5 1042.48 319.5C1050.48 317.5 1052.98 299.5 1053.48 293.5C1053.98 287.5 1045.48 252 1050.48 255C1055.48 258 1065.48 299.5 1072.98 315.5C1080.48 331.5 1088.48 342.5 1096.48 345.5C1104.48 348.5 1108.48 342 1108.48 342V315.5C1108.48 315.5 1106.65 289.318 1104.48 281C1102.31 272.682 1099.98 264 1096.48 261C1092.98 258 1088.48 261 1088.48 261C1088.48 261 1089.48 280 1090.48 283C1091.48 286 1100.98 304.5 1100.98 304.5C1100.98 304.5 1123.48 335.5 1130.98 342C1138.48 348.5 1142.98 348.5 1147.98 348.5C1152.98 348.5 1141.98 327 1141.98 327C1141.98 327 1128.98 302.5 1125.48 298C1121.98 293.5 1104.48 281 1110.98 279C1117.48 277 1143.9 281.035 1147.98 281C1152.05 280.965 1162.98 277 1162.98 277C1162.98 277 1187.35 266.53 1192.48 261" stroke="#A333D4" stroke-width="2" stroke-linecap="round"/>
<path d="M891.976 197C894.001 231.51 896.493 249.695 916.976 250.5C937.459 251.305 932.375 174.768 929.476 173.5C941.636 216.99 971.476 254 971.976 263C972.476 272 939.476 275 934.476 265.5C929.476 256 949.976 233 949.976 233L977.476 185C976.89 207.289 976.976 227 987.476 227.5C997.976 228 997.976 204 997.976 204C995.851 193.255 993.709 188.83 987.476 185C974.297 179.788 970.505 185.351 964.476 197C965.074 206.624 966.339 211.318 977.476 213C992.679 205.969 996.393 198.575 1002.48 185C1008.71 205.088 1020.98 226 1027.48 221C1033.98 216 1033.98 182.5 1033.98 182.5C1033.98 182.5 1029.86 176.229 1027.48 185C1025.1 193.771 1046.93 215.707 1049.98 216C1054.8 202.729 1054.94 194.65 1049.98 179C1047.21 168.743 1043.81 164.946 1036.98 159C1056.65 161.234 1065.57 161.931 1076.98 162C1082.82 188.604 1093.48 208.5 1100.98 207.5C1108.48 206.5 1110.02 189.826 1108.48 176C1125.85 161.782 1134.83 159.739 1150.48 159" stroke="#A333D4" stroke-width="2"/>
<path d="M883.976 177.5C878.868 218.641 894.811 249 908.476 247C922.141 245 928.976 191.5 926.476 181C923.976 170.5 917.742 177.051 918.976 181C920.21 184.949 964.249 260.518 966.476 268.5C968.704 276.482 911.476 263.5 918.976 250C926.476 236.5 952.476 201 953.476 195.5C954.476 190 950.976 189 947.476 190C943.976 191 941.427 194.477 942.976 200.5C944.525 206.523 959.476 218.5 966.476 213.5C973.476 208.5 975.476 195 972.976 190C970.476 185 960.976 185 956.976 187.5C952.976 190 940.649 214.5 942.976 221.5C945.304 228.5 965.476 233.5 970.476 228.5C975.476 223.5 996.282 183.462 998.976 185C1001.67 186.538 1004.48 221.5 1015.48 221.5C1026.48 221.5 1018.48 184 1023.48 185C1028.48 186 1045.98 206.5 1048.98 204.5C1051.98 202.5 1048.98 185 1048.98 185C1046.07 172.966 1031.48 164 1033.98 163C1036.48 162 1055.48 161.5 1065.48 167C1075.48 172.5 1070.98 207.5 1080.98 210.5C1090.98 213.5 1092.48 200.5 1092.48 200.5" stroke="#A333D4"/>
<path d="M892.976 37.5C900.087 72.7205 903.559 93.1436 904.476 136.5C924.846 130.423 975.476 77 977.476 86C979.476 95 964.976 152 980.476 153C995.976 154 997.504 139.115 995.976 121.5C995.342 104.504 992.644 98.603 984.976 92.5C976.672 88.8568 951.476 101 949.476 109C947.476 117 981.248 126.5 988.476 121.5C995.705 116.5 997.476 92.5 1005.98 92.5C1014.48 92.5 1028.48 136.5 1035.98 136.5C1043.48 136.5 1033.48 97 1037.98 94.5C1042.48 92 1053.48 109.5 1058.48 112C1063.48 114.5 1070.48 99.5 1070.48 92.5C1070.48 85.5 1070.48 73.5 1063.48 73C1056.48 72.5 1052.48 82.5 1051.98 86C1051.48 89.5 1051.48 99.5 1055.98 103.5C1060.48 107.5 1071.48 124 1080.48 121.5C1089.48 119 1091.98 109 1091.98 109" stroke="#A333D4" stroke-linecap="round"/>
<path d="M889.476 21C898.809 58.9956 901.476 147 903.976 154C906.476 161 969.491 73.8161 962.476 84.5C955.462 95.1839 983.894 168.463 1001.48 149.5C1019.06 130.537 1002.81 114.025 997.476 106.5C992.142 98.9746 958.976 104.5 957.976 114.5C956.976 124.5 978.893 123.589 989.976 114.5C1001.62 103.28 1000.48 88 1005.48 84.5C1010.48 81 1036.48 139.5 1040.98 139C1045.48 138.5 1036.48 88 1037.48 84.5C1038.48 81 1057.48 121 1066.48 119C1075.48 117 1075.98 84.5 1070.48 81C1064.98 77.5 1061.66 87.0696 1062.48 98C1068.88 114.304 1077.48 125.5 1085.98 124.5C1094.48 123.5 1096.38 116.81 1096.48 106.5C1096.22 101.156 1095.11 97.6348 1092.48 91" stroke="#A333D4" stroke-width="2" stroke-linecap="round"/>
</g>
<g filter="url(#filter1_d_214_62)">
<path d="M978.869 739.961C972.661 749.692 968.576 754.468 958.812 760.165C943.085 769.878 935.687 772.391 922.757 776.329C920.609 776.664 918.675 776.899 916.904 777.044M978.869 739.961C975.721 727.506 973.247 721.058 965.232 712.279M978.869 739.961C980.256 721.804 979.825 708.673 975.395 694.497M978.869 739.961C976.426 735.348 973.713 732.112 969.94 729.971M978.869 739.961C973.767 743.059 969.577 745.176 965.782 746.436M917.346 654.806C912.601 644.503 914.019 637.2 915.72 624.485C930.601 633.509 940.295 640.445 949.074 649.651M917.346 654.806C917.155 661.913 917.824 665.538 921.552 670.823C920.066 682.596 921.717 687.848 927.678 695.576M917.346 654.806C929.093 664.582 936.402 669.761 951.124 678.291M927.678 695.576C925.054 705.136 924.598 710.51 931.258 720.202C933.488 723.351 936.933 724.576 943.005 726.779M927.678 695.576C936.019 700.961 941.788 704.177 965.232 712.279M943.005 726.779C937.757 728.333 935.259 730.008 932.795 736.577M943.005 726.779C956.184 726.005 964.263 726.749 969.94 729.971M932.795 736.577C922.65 743.063 918.789 747.775 917.703 759.582M932.795 736.577C940.179 736.023 943.84 736.119 947.784 738.487M917.703 759.582C917.523 762.747 917.16 764.677 915.377 768.793C913.684 773.314 907.637 773.613 895.599 773.597C903.116 776.205 907.936 777.778 916.904 777.044M917.703 759.582C920.221 758.719 923.243 757.463 926.362 756.053M965.232 712.279C955.401 698.685 953.222 691.311 951.124 678.291M951.124 678.291C955.327 678.61 958.699 679.291 962.207 681.373M975.395 694.497C972.707 685.898 968.548 676.914 962.431 666.191C957.836 659.689 953.575 654.371 949.074 649.651M975.395 694.497C970.006 687.567 966.026 683.639 962.207 681.373M962.207 681.373C959.296 670.124 955.689 662.802 949.074 649.651M945.992 745.582C946.181 742.752 946.677 740.422 947.784 738.487M945.992 745.582C953.339 748.189 958.913 748.717 965.782 746.436M945.992 745.582C946.755 745.751 936.089 751.653 926.362 756.053M969.94 729.971C956.448 731.534 950.405 733.905 947.784 738.487M916.904 777.044C928.826 771.902 937.671 767.814 945.875 762.571M965.782 746.436C958.709 753.346 952.501 758.335 945.875 762.571M945.875 762.571C936.902 762.393 932.589 761.018 926.362 756.053" stroke="#A333D4" stroke-width="2"/>
<path d="M980.927 739.98C981.79 751.5 983.132 757.646 989.065 767.309C998.364 783.343 1003.72 789.077 1013.29 798.699C1015.03 800.016 1016.63 801.144 1018.13 802.115M980.927 739.98C989.644 730.52 994.904 726.025 1006.18 722.116M980.927 739.98C988.344 723.343 994.978 711.994 1005.65 701.63M980.927 739.98C985.287 737.085 989.229 735.529 993.589 735.441M980.927 739.98C983.969 745.136 986.67 748.994 989.43 751.91M1075.94 694.344C1085.05 687.538 1087.27 680.437 1091.82 668.438C1074.35 669.294 1062.46 670.781 1050.31 674.702M1075.94 694.344C1072.73 700.69 1070.41 703.561 1064.59 706.436C1060.3 717.503 1056.34 721.338 1047.38 725.3M1075.94 694.344C1060.89 697.354 1051.95 698.431 1034.85 698.926M1047.38 725.3C1045.15 734.961 1043 739.907 1032.49 745.264C1029.01 746.973 1025.38 746.411 1018.96 745.458M1047.38 725.3C1037.43 726.066 1030.79 726.149 1006.18 722.116M1018.96 745.458C1022.86 749.324 1024.28 751.987 1023.33 758.941M1018.96 745.458C1007.66 738.501 1000.15 735.309 993.589 735.441M1023.33 758.941C1029.22 769.478 1030.4 775.463 1025.74 786.369M1023.33 758.941C1017.06 754.938 1013.77 753.279 1009.15 753.484M1025.74 786.369C1024.39 789.24 1023.79 791.111 1023.41 795.581C1022.76 800.366 1027.97 803.508 1038.63 809.225C1030.74 807.942 1025.72 807.03 1018.13 802.115M1025.74 786.369C1023.92 784.411 1021.84 781.867 1019.75 779.141M1006.18 722.116C1021.36 714.835 1026.8 709.384 1034.85 698.926M1034.85 698.926C1030.98 697.206 1027.67 696.199 1023.58 696.361M1005.65 701.63C1012.12 695.343 1020.08 689.418 1030.61 682.896C1037.77 679.363 1044.07 676.712 1050.31 674.702M1005.65 701.63C1013.72 698.098 1019.11 696.537 1023.58 696.361M1023.58 696.361C1031.51 687.849 1038.19 683.124 1050.31 674.702M1007.36 760.581C1008.54 758.001 1009.21 755.714 1009.15 753.484M1007.36 760.581C999.613 759.376 994.426 757.187 989.43 751.91M1007.36 760.581C1006.6 760.366 1013.24 770.638 1019.75 779.141M993.589 735.441C1004.79 743.241 1009.01 748.205 1009.15 753.484M1018.13 802.115C1010.02 791.913 1004.14 784.105 999.373 775.585M989.43 751.91C992.403 761.357 995.523 768.703 999.373 775.585M999.373 775.585C1007.4 779.701 1011.88 780.545 1019.75 779.141" stroke="#A333D4" stroke-width="2"/>
</g>
<g filter="url(#filter2_d_214_62)">
<path d="M107.046 358.955C109.617 355.123 114.535 352.107 120.087 351.804C125.887 351.488 132.276 354.132 137.404 361.618L137.546 361.825L137.573 362.075C139.564 380.344 142.123 408.551 134.513 440.639L134.144 442.17C126.073 474.929 115.628 479.058 103.485 497.708L102.832 498.711L101.962 497.891C81.3646 478.495 69.3892 465.769 46.7101 437.092L46.6367 437L46.5877 436.892C40.8337 424.508 37.048 414.901 35.4611 405.69C33.8685 396.446 34.4988 387.656 37.4756 376.903L37.6112 376.413L38.0866 376.234C44.8027 373.703 50.2536 372.915 55.7736 374.978C60.886 376.889 65.9071 381.194 72.0378 388.393L73.279 389.871L73.2852 389.879L74.403 391.248C79.886 397.93 83.8113 402.259 86.8652 408.34C89.3989 413.385 91.3272 419.617 93.1659 429.404C94.0471 414.09 96.0347 399.718 98.3421 387.94C99.7338 380.836 101.243 374.666 102.7 369.796C104.148 364.955 105.568 361.314 106.805 359.329L107.046 358.955Z" stroke="#A333D4" stroke-width="2"/>
<path d="M123.48 359.566C131.376 357.82 138.097 358.309 142.978 362.962C147.79 367.55 150.549 375.955 151.212 389.323L151.27 390.632C151.824 405.008 145.092 422.371 135.44 439.886C125.768 457.438 113.07 475.304 101.5 490.726L101.025 491.358L100.299 491.041C80.4025 482.341 67.0329 472.695 56.155 459.84C45.3002 447.012 36.9673 431.033 27.0765 409.766L27.0677 409.747L27.0599 409.729C24.6523 403.95 22.163 397.489 21.632 391.689C21.3653 388.776 21.5856 385.965 22.6034 383.462C23.6294 380.939 25.4422 378.791 28.2458 377.191L28.5315 377.036C31.521 375.494 35.6997 375.8 40.4295 377.554C45.3582 379.382 51.1045 382.859 57.2062 387.927C68.6138 397.404 81.3711 412.535 92.4869 433.215C90.965 414.402 91.3451 400.753 95.2677 389.722C99.5533 377.671 108.013 368.878 122.413 359.867L122.553 359.78L122.713 359.742L123.48 359.566Z" stroke="#A333D4" stroke-width="2"/>
</g>
<defs>
<filter id="filter0_d_214_62" x="862.5" y="-0.000244141" width="350.976" height="393.085" filterUnits="userSpaceOnUse" color-interpolation-filters="sRGB">
<feFlood flood-opacity="0" result="BackgroundImageFix"/>
<feColorMatrix in="SourceAlpha" type="matrix" values="0 0 0 0 0 0 0 0 0 0 0 0 0 0 0 0 0 0 127 0" result="hardAlpha"/>
<feOffset/>
<feGaussianBlur stdDeviation="10"/>
<feComposite in2="hardAlpha" operator="out"/>
<feColorMatrix type="matrix" values="0 0 0 0 0.639216 0 0 0 0 0.2 0 0 0 0 0.831373 0 0 0 1 0"/>
<feBlend mode="normal" in2="BackgroundImageFix" result="effect1_dropShadow_214_62"/>
<feBlend mode="normal" in="SourceGraphic" in2="effect1_dropShadow_214_62" result="shape"/>
</filter>
<filter id="filter1_d_214_62" x="875.271" y="602.837" width="238.023" height="227.375" filterUnits="userSpaceOnUse" color-interpolation-filters="sRGB">
<feFlood flood-opacity="0" result="BackgroundImageFix"/>
<feColorMatrix in="SourceAlpha" type="matrix" values="0 0 0 0 0 0 0 0 0 0 0 0 0 0 0 0 0 0 127 0" result="hardAlpha"/>
<feOffset/>
<feGaussianBlur stdDeviation="10"/>
<feComposite in2="hardAlpha" operator="out"/>
<feColorMatrix type="matrix" values="0 0 0 0 0.639216 0 0 0 0 0.2 0 0 0 0 0.831373 0 0 0 1 0"/>
<feBlend mode="normal" in2="BackgroundImageFix" result="effect1_dropShadow_214_62"/>
<feBlend mode="normal" in="SourceGraphic" in2="effect1_dropShadow_214_62" result="shape"/>
</filter>
<filter id="filter2_d_214_62" x="0.528442" y="330.779" width="171.772" height="189.48" filterUnits="userSpaceOnUse" color-interpolation-filters="sRGB">
<feFlood flood-opacity="0" result="BackgroundImageFix"/>
<feColorMatrix in="SourceAlpha" type="matrix" values="0 0 0 0 0 0 0 0 0 0 0 0 0 0 0 0 0 0 127 0" result="hardAlpha"/>
<feOffset/>
<feGaussianBlur stdDeviation="10"/>
<feComposite in2="hardAlpha" operator="out"/>
<feColorMatrix type="matrix" values="0 0 0 0 0.639216 0 0 0 0 0.2 0 0 0 0 0.831373 0 0 0 1 0"/>
<feBlend mode="normal" in2="BackgroundImageFix" result="effect1_dropShadow_214_62"/>
<feBlend mode="normal" in="SourceGraphic" in2="effect1_dropShadow_214_62" result="shape"/>
</filter>
</defs>
</svg>
