<svg width="171" height="44" viewBox="0 0 171 44" fill="none" xmlns="http://www.w3.org/2000/svg">
<path d="M17.4041 6.70907V25.6182H14.3572L5.44744 12.7382H5.29048V25.6182H1.86506V6.70907H4.9304L13.831 19.5983H13.9972V6.70907H17.4041ZM21.1365 25.6182V6.70907H33.4348V9.58052H24.562V14.714H32.7978V17.5855H24.562V22.7467H33.5087V25.6182H21.1365ZM36.9295 25.6182V6.70907H49.2278V9.58052H40.3549V14.714H48.5907V17.5855H40.3549V22.7467H49.3017V25.6182H36.9295ZM59.1301 25.6182H52.7225V6.70907H59.2594C61.1368 6.70907 62.7495 7.08762 64.0975 7.84473C65.4516 8.59567 66.4919 9.67593 67.2182 11.0855C67.9445 12.4951 68.3077 14.1816 68.3077 16.1452C68.3077 18.1148 67.9415 19.8076 67.209 21.2233C66.4827 22.639 65.4332 23.7254 64.0605 24.4825C62.6941 25.2396 61.0506 25.6182 59.1301 25.6182ZM56.1479 22.6544H58.964C60.2812 22.6544 61.3799 22.4143 62.2601 21.9342C63.1403 21.4479 63.802 20.7247 64.2452 19.7645C64.6884 18.7981 64.91 17.5916 64.91 16.1452C64.91 14.6987 64.6884 13.4984 64.2452 12.5443C63.802 11.5841 63.1465 10.867 62.2786 10.393C61.4168 9.91291 60.3458 9.67285 59.0655 9.67285H56.1479V22.6544ZM71.5623 25.6182V6.70907H74.9877V22.7467H83.3159V25.6182H71.5623ZM86.2889 25.6182V6.70907H98.5872V9.58052H89.7143V14.714H97.9501V17.5855H89.7143V22.7467H98.661V25.6182H86.2889ZM121.75 25.6182H118.094L124.751 6.70907H128.98L135.646 25.6182H131.99L126.939 10.5869H126.792L121.75 25.6182ZM121.87 18.2041H131.842V20.9555H121.87V18.2041ZM138.137 25.6182V6.70907H145.227C146.68 6.70907 147.899 6.96144 148.884 7.46617C149.875 7.97091 150.623 8.67877 151.127 9.58975C151.638 10.4946 151.894 11.5502 151.894 12.7567C151.894 13.9693 151.635 15.0218 151.118 15.9143C150.607 16.8007 149.853 17.487 148.856 17.9733C147.859 18.4534 146.634 18.6934 145.181 18.6934H140.131V15.8497H144.72C145.569 15.8497 146.265 15.7327 146.806 15.4988C147.348 15.2588 147.748 14.911 148.007 14.4555C148.271 13.9939 148.404 13.4276 148.404 12.7567C148.404 12.0857 148.271 11.5133 148.007 11.0393C147.742 10.5592 147.339 10.1961 146.797 9.94984C146.255 9.69747 145.557 9.57129 144.701 9.57129H141.562V25.6182H138.137ZM147.905 17.05L152.586 25.6182H148.764L144.166 17.05H147.905ZM154.216 9.58052V6.70907H169.302V9.58052H163.458V25.6182H160.06V9.58052H154.216Z" fill="white"/>
<path d="M107.585 25.8952C106.292 25.8952 105.181 25.6613 104.252 25.1934C103.322 24.7256 102.605 24.0947 102.1 23.3007C101.602 22.5005 101.352 21.5988 101.352 20.5954C101.352 19.8383 101.506 19.1674 101.814 18.5827C102.128 17.9979 102.559 17.4562 103.107 16.9577C103.661 16.4591 104.301 15.9636 105.027 15.4711L108.379 13.1906C108.871 12.8705 109.244 12.532 109.496 12.175C109.754 11.818 109.884 11.3994 109.884 10.9193C109.884 10.513 109.711 10.1283 109.367 9.76518C109.028 9.40202 108.56 9.22044 107.963 9.22044C107.563 9.22044 107.209 9.31584 106.901 9.50666C106.6 9.69132 106.363 9.93445 106.191 10.2361C106.024 10.5377 105.941 10.8577 105.941 11.1963C105.941 11.6087 106.055 12.0273 106.283 12.452C106.517 12.8767 106.818 13.3168 107.188 13.7723C107.563 14.2278 107.963 14.711 108.388 15.2219L117.261 25.6182H113.642L106.274 17.1792C105.726 16.5391 105.196 15.9082 104.686 15.2865C104.181 14.6648 103.765 14.0185 103.439 13.3476C103.119 12.6705 102.959 11.938 102.959 11.1501C102.959 10.2576 103.165 9.46049 103.578 8.75879C103.99 8.05093 104.566 7.49387 105.304 7.08762C106.049 6.68137 106.92 6.47825 107.917 6.47825C108.914 6.47825 109.77 6.67522 110.484 7.06916C111.198 7.4631 111.749 7.9863 112.137 8.63876C112.524 9.29122 112.718 10.0022 112.718 10.7716C112.718 11.6641 112.497 12.4643 112.053 13.1721C111.61 13.8738 110.995 14.5109 110.207 15.0834L106.384 17.8809C105.757 18.3364 105.307 18.7981 105.036 19.2659C104.766 19.7275 104.63 20.1215 104.63 20.4477C104.63 20.9463 104.756 21.3987 105.009 21.805C105.261 22.2112 105.615 22.5374 106.07 22.7836C106.532 23.0237 107.071 23.1437 107.686 23.1437C108.363 23.1437 109.031 22.9929 109.69 22.6913C110.348 22.3836 110.949 21.9465 111.49 21.3802C112.032 20.8139 112.463 20.1369 112.783 19.349C113.103 18.555 113.263 17.6747 113.263 16.7084H116.134C116.134 17.9025 116.002 18.9427 115.737 19.8291C115.473 20.7093 115.131 21.4541 114.713 22.0635C114.294 22.6667 113.851 23.1499 113.383 23.5131C113.235 23.6177 113.094 23.7223 112.958 23.827C112.823 23.9316 112.681 24.0363 112.534 24.1409C111.869 24.7441 111.09 25.1873 110.198 25.4704C109.311 25.7536 108.44 25.8952 107.585 25.8952Z" fill="#A333D4"/>
<path d="M63.6761 33.1483V32.0545H71.3125V33.1483H68.1108V42.2364H66.8778V33.1483H63.6761ZM72.4435 42.2364H71.1509L74.8896 32.0545H76.1623L79.9009 42.2364H78.6083L75.5657 33.6653H75.4862L72.4435 42.2364ZM72.9208 38.2591H78.131V39.3528H72.9208V38.2591ZM79.7406 33.1483V32.0545H87.377V33.1483H84.1752V42.2364H82.9423V33.1483H79.7406ZM88.723 33.1483V32.0545H96.3594V33.1483H93.1577V42.2364H91.9247V33.1483H88.723ZM106.429 37.1454C106.429 38.2193 106.235 39.1473 105.848 39.9295C105.46 40.7117 104.928 41.315 104.252 41.7392C103.576 42.1634 102.803 42.3756 101.935 42.3756C101.067 42.3756 100.294 42.1634 99.6183 41.7392C98.9421 41.315 98.4102 40.7117 98.0224 39.9295C97.6346 39.1473 97.4407 38.2193 97.4407 37.1454C97.4407 36.0716 97.6346 35.1436 98.0224 34.3614C98.4102 33.5792 98.9421 32.9759 99.6183 32.5517C100.294 32.1275 101.067 31.9153 101.935 31.9153C102.803 31.9153 103.576 32.1275 104.252 32.5517C104.928 32.9759 105.46 33.5792 105.848 34.3614C106.235 35.1436 106.429 36.0716 106.429 37.1454ZM105.236 37.1454C105.236 36.2638 105.089 35.5197 104.794 34.9132C104.502 34.3067 104.106 33.8476 103.605 33.5361C103.108 33.2245 102.551 33.0687 101.935 33.0687C101.319 33.0687 100.76 33.2245 100.26 33.5361C99.7624 33.8476 99.3664 34.3067 99.0714 34.9132C98.7797 35.5197 98.6339 36.2638 98.6339 37.1454C98.6339 38.0271 98.7797 38.7712 99.0714 39.3777C99.3664 39.9842 99.7624 40.4433 100.26 40.7548C100.76 41.0664 101.319 41.2222 101.935 41.2222C102.551 41.2222 103.108 41.0664 103.605 40.7548C104.106 40.4433 104.502 39.9842 104.794 39.3777C105.089 38.7712 105.236 38.0271 105.236 37.1454Z" fill="white"/>
</svg>
